<svg xmlns:xlink="http://www.w3.org/1999/xlink" height="812" viewBox="0 0 375 812" width="375"
    xmlns="http://www.w3.org/2000/svg">
    <defs>
        <clipPath id="clip-path">
            <path
                d="M-702.456,541.569h-374.959V-22.341c18.408-2.661,53-2.417,88.225,25.582,51.584,41,35.712,124.332,79.361,146.817s92.588,5.291,125.656,58.2c21.687,34.7,55.894,38.109,81.718,47.539Z"
                data-name="Path 6" fill="none" id="Path_6" transform="translate(1077.415 23.414)" />
        </clipPath>
        <linearGradient gradientUnits="objectBoundingBox" id="linear-gradient" x1="0.5" x2="0.5"
            y1="0.893" y2="0.133">
            <stop offset="0.109" stop-color="#f7f7f7" />
            <stop offset="0.192" stop-color="#f0f5f7" />
            <stop offset="0.306" stop-color="#dfeff7" />
            <stop offset="0.439" stop-color="#c2e6f8" />
            <stop offset="0.585" stop-color="#99d9fa" />
            <stop offset="0.742" stop-color="#65c9fb" />
            <stop offset="0.906" stop-color="#27b5fd" />
            <stop offset="1" stop-color="#00a9ff" />
        </linearGradient>
        <linearGradient gradientUnits="objectBoundingBox" id="linear-gradient-2" x1="0.5" x2="0.5"
            y1="-0.574" y2="1.426">
            <stop offset="0" stop-color="#f7f7f7" />
            <stop offset="0.098" stop-color="#f1f5f7" />
            <stop offset="0.224" stop-color="#e1f0f7" />
            <stop offset="0.367" stop-color="#c6e7f8" />
            <stop offset="0.522" stop-color="#a0dbf9" />
            <stop offset="0.686" stop-color="#70ccfb" />
            <stop offset="0.855" stop-color="#37bafd" />
            <stop offset="1" stop-color="#00a9ff" />
        </linearGradient>
        <clipPath id="clip-_02-language">
            <rect height="812" width="375" />
        </clipPath>
    </defs>
    <g clip-path="url(#clip-_02-language)" data-name="02-language" id="_02-language">
        <rect fill="#fff" height="812" width="375" />
        <g data-name="Group 19" id="Group_19" transform="translate(0 360.893)">
            <g data-name="Group 4" id="Group_4" transform="translate(0.063 0)">
                <g clip-path="url(#clip-path)" data-name="Group 3" id="Group_3">
                    <rect data-name="Rectangle 1" fill="url(#linear-gradient)" height="722.976"
                        id="Rectangle_1" rx="16.799" transform="translate(0 -213.545)"
                        width="374.96" />
                </g>
            </g>
            <g data-name="Group 14" id="Group_14" transform="translate(0 263.426)">
                <g data-name="Group 5" id="Group_5" transform="translate(0)">
                    <path
                        d="M-893.6,190.831h-183.751a27.1,27.1,0,0,1,27.014-25.132,27.012,27.012,0,0,1,10.132,1.976,37.666,37.666,0,0,1,33.516-20.493,37.673,37.673,0,0,1,35.377,24.782,25.743,25.743,0,0,1,6.948-.974,25.684,25.684,0,0,1,8.593,1.5,37.679,37.679,0,0,1,36.379-27.953,37.813,37.813,0,0,1,6.595.613,37.819,37.819,0,0,1,19.2-21.9Z"
                        data-name="Path 7" fill="#fff" id="Path_7" opacity="0.83"
                        transform="translate(1268.498 -95.694)" />
                    <path
                        d="M-1029.4,144.161a51.724,51.724,0,0,1,6.309-.429,51.592,51.592,0,0,1,9.021.839,51.548,51.548,0,0,1,48.866-35.21,51.576,51.576,0,0,1,49.94,38.7,35.7,35.7,0,0,1,10.079,15.265,35.89,35.89,0,0,1,6.236-.579,35.617,35.617,0,0,1,34.387,26.421,24.314,24.314,0,0,1,8.123-1.415,24.308,24.308,0,0,1,6.567.921,35.613,35.613,0,0,1,33.443-23.425,35.6,35.6,0,0,1,31.681,19.372,25.531,25.531,0,0,1,9.577-1.869,25.614,25.614,0,0,1,25.536,23.755H-941.294c-.331.175-.653.369-.988.536h-87.12Z"
                        data-name="Path 8" fill="#fff" id="Path_8" opacity="0.83"
                        transform="translate(1029.402 -109.361)" />
                </g>
                <g data-name="Group 6" id="Group_6" transform="translate(0.063 53.239)">
                    <path
                        d="M-999.56,136.195c1.369.1,2.772.2,4.236.315,25.792,1.984,22.816,7.936,44.64,12.9s12.9,9.92,25.792,10.912,17.856,1.984,32.736-.992,27.776,7.936,34.72,7.936,12.9,0,30.752,2.976,44.64,12.9,44.64,12.9l2.976,11.9-220.493.865Z"
                        data-name="Path 9" fill="#68bbdd" id="Path_9"
                        transform="translate(999.56 -136.195)" />
                    <path
                        d="M-1000.56,146.353a98.473,98.473,0,0,1,20.108,5.293c15.872,5.952,9.259,9.92,27.776,9.92s27.115-3.307,40.341-.661,23.147,3.305,36.375,3.968,22.485-1.323,32.4,0a198.713,198.713,0,0,0,24.469,1.984c5.952,0,20.5-3.307,27.776-1.323s13.227,10.581,13.227,10.581H-1000.56Z"
                        data-name="Path 10" fill="#488ac9" id="Path_10"
                        transform="translate(1000.56 -126.199)" />
                </g>
                <g data-name="Group 13" id="Group_13" transform="translate(12.221 42.575)">
                    <g data-name="Group 7" id="Group_7" transform="translate(13.738)">
                        <path
                            d="M-905.376,150.8s1.494-9.6-3.2-15.36c0,0,6.188,4.48,6.615,15.787C-901.961,151.231-902.176,152.937-905.376,150.8Z"
                            data-name="Path 11" fill="#68bbdd" id="Path_11"
                            transform="translate(916.046 -126.27)" />
                        <path
                            d="M-900.8,142.127s-2.135,1.067-2.347,2.028c0,.319-.96-1.067-.96-1.067l.427,1.6s-1.921,1.6-2.028,2.026c-.212.214-1.172-4.8,2.774-5.76a6.421,6.421,0,0,0-3.305-.641l-.321-1.6-.107,1.28s-2.133-.853-3.305-.214c-.107-.319,1.921-2.026,3.734-2.345s4.158,1.706,4.158,1.706a8.45,8.45,0,0,1-.853-3.627,43,43,0,0,1,.748-4.694,17.843,17.843,0,0,1,2.026,4.587,7.172,7.172,0,0,1,.214,3.734,3.836,3.836,0,0,1,2.133-1.175,5.833,5.833,0,0,1,3.839,1.387,6.21,6.21,0,0,1,.855,2.561l-2.561-1.28-.282-.442-.464-.732-.214.748-2.345.212s2.559,1.173,2.986,2.774a19.407,19.407,0,0,1,.534,2.559s-2.347-2.24-3.093-2.986a2.887,2.887,0,0,0-1.387-.853v.639Z"
                            data-name="Path 12" fill="#68bbdd" id="Path_12"
                            transform="translate(909.974 -130.82)" />
                    </g>
                    <g data-name="Group 8" id="Group_8" transform="translate(34.57 9.591)">
                        <path
                            d="M-915.876,155.637s1.494-9.6-3.2-15.36c0,0,6.188,4.48,6.615,15.787C-912.461,156.064-912.676,157.772-915.876,155.637Z"
                            data-name="Path 13" fill="#68bbdd" id="Path_13"
                            transform="translate(926.546 -131.105)" />
                        <path
                            d="M-911.3,146.961s-2.135,1.065-2.347,2.026c0,.319-.96-1.065-.96-1.065l.427,1.6s-1.921,1.6-2.028,2.026c-.212.214-1.173-4.8,2.774-5.76a6.406,6.406,0,0,0-3.305-.639l-.322-1.6-.107,1.28s-2.133-.853-3.305-.212c-.107-.319,1.921-2.028,3.734-2.347s4.158,1.706,4.158,1.706a8.45,8.45,0,0,1-.853-3.627,42.927,42.927,0,0,1,.748-4.692,17.811,17.811,0,0,1,2.026,4.585,7.174,7.174,0,0,1,.214,3.734,3.838,3.838,0,0,1,2.133-1.173,5.812,5.812,0,0,1,3.839,1.387,6.2,6.2,0,0,1,.855,2.559l-2.561-1.28-.282-.442-.464-.73-.214.746-2.345.212s2.559,1.175,2.986,2.774a19.464,19.464,0,0,1,.534,2.561s-2.347-2.24-3.093-2.988a2.887,2.887,0,0,0-1.387-.853v.641Z"
                            data-name="Path 14" fill="#68bbdd" id="Path_14"
                            transform="translate(920.474 -135.654)" />
                    </g>
                    <g data-name="Group 9" id="Group_9" transform="translate(0 1.79)">
                        <path
                            d="M-896.846,143.474s.879-5.647-1.881-9.033c0,0,3.639,2.635,3.889,9.283C-894.838,143.724-894.963,144.728-896.846,143.474Z"
                            data-name="Path 15" fill="#68bbdd" id="Path_15"
                            transform="translate(903.12 -129.046)" />
                        <path
                            d="M-894.152,138.37s-1.256.627-1.381,1.192c0,.188-.563-.627-.563-.627l.25.94s-1.129.94-1.192,1.192c-.125.125-.688-2.823,1.631-3.389a3.774,3.774,0,0,0-1.944-.375l-.188-.942-.062.754a2.913,2.913,0,0,0-1.944-.127,3.581,3.581,0,0,1,2.194-1.379c1.067-.188,2.446,1,2.446,1a4.989,4.989,0,0,1-.5-2.133,25.284,25.284,0,0,1,.44-2.76,10.5,10.5,0,0,1,1.193,2.7,4.239,4.239,0,0,1,.125,2.2,2.253,2.253,0,0,1,1.254-.69,3.42,3.42,0,0,1,2.258.815,3.637,3.637,0,0,1,.5,1.506l-1.506-.754-.165-.26-.274-.429-.125.438-1.381.125s1.506.69,1.758,1.631a11.6,11.6,0,0,1,.314,1.506s-1.381-1.317-1.819-1.756a1.685,1.685,0,0,0-.815-.5v.377Z"
                            data-name="Path 16" fill="#68bbdd" id="Path_16"
                            transform="translate(899.549 -131.722)" />
                    </g>
                    <g data-name="Group 10" id="Group_10" transform="translate(83.658 23.943)">
                        <path
                            d="M-937.494,154.64s-.879-5.645,1.883-9.033c0,0-3.639,2.635-3.891,9.285C-939.5,154.892-939.377,155.9-937.494,154.64Z"
                            data-name="Path 17" fill="#68bbdd" id="Path_17"
                            transform="translate(941.133 -140.212)" />
                        <path
                            d="M-937.2,149.538s1.254.627,1.379,1.19c0,.189.566-.627.566-.627l-.252.942s1.129.94,1.193,1.19c.125.127.69-2.821-1.631-3.387a3.773,3.773,0,0,1,1.944-.377l.189-.94.063.752a2.9,2.9,0,0,1,1.944-.125,3.571,3.571,0,0,0-2.2-1.379c-1.065-.189-2.446,1-2.446,1a4.957,4.957,0,0,0,.5-2.133,25.543,25.543,0,0,0-.438-2.76,10.528,10.528,0,0,0-1.192,2.7,4.2,4.2,0,0,0-.125,2.194,2.252,2.252,0,0,0-1.256-.688,3.418,3.418,0,0,0-2.258.815,3.637,3.637,0,0,0-.5,1.506l1.506-.754.165-.26.274-.431.127.44,1.379.125s-1.506.69-1.756,1.631a11.133,11.133,0,0,0-.313,1.506s1.379-1.317,1.819-1.758a1.68,1.68,0,0,1,.815-.5v.375Z"
                            data-name="Path 18" fill="#68bbdd" id="Path_18"
                            transform="translate(941.716 -142.888)" />
                    </g>
                    <g data-name="Group 11" id="Group_11" transform="translate(96.814 20.999)">
                        <path
                            d="M-944.334,156.343s-1.117-7.176,2.391-11.483c0,0-4.625,3.349-4.942,11.8C-946.886,156.663-946.727,157.939-944.334,156.343Z"
                            data-name="Path 19" fill="#68bbdd" id="Path_19"
                            transform="translate(948.959 -138.003)" />
                        <path
                            d="M-943.962,149.856s1.6.8,1.754,1.516c0,.238.718-.8.718-.8l-.319,1.2s1.436,1.2,1.516,1.514c.159.161.877-3.587-2.073-4.305a4.8,4.8,0,0,1,2.472-.478l.24-1.2.079.956a3.7,3.7,0,0,1,2.472-.159c.079-.24-1.436-1.516-2.792-1.754S-943,147.624-943,147.624a6.34,6.34,0,0,0,.637-2.712,32.027,32.027,0,0,0-.558-3.508,13.324,13.324,0,0,0-1.516,3.428,5.36,5.36,0,0,0-.159,2.792,2.866,2.866,0,0,0-1.6-.877,4.359,4.359,0,0,0-2.871,1.036,4.64,4.64,0,0,0-.637,1.915l1.913-.958.21-.329.347-.548.161.559,1.754.159s-1.915.877-2.232,2.073a14.389,14.389,0,0,0-.4,1.915s1.754-1.674,2.311-2.234a2.155,2.155,0,0,1,1.038-.637v.478Z"
                            data-name="Path 20" fill="#68bbdd" id="Path_20"
                            transform="translate(949.702 -141.404)" />
                    </g>
                    <g data-name="Group 12" id="Group_12" transform="translate(132.195 28.274)">
                        <path
                            d="M-962.169,160.01s-1.117-7.178,2.393-11.483c0,0-4.625,3.349-4.944,11.8C-964.72,160.328-964.561,161.6-962.169,160.01Z"
                            data-name="Path 21" fill="#68bbdd" id="Path_21"
                            transform="translate(966.793 -141.67)" />
                        <path
                            d="M-961.793,153.523s1.593.8,1.754,1.514c0,.24.718-.8.718-.8l-.319,1.194s1.434,1.2,1.514,1.516c.161.159.879-3.589-2.073-4.305a4.8,4.8,0,0,1,2.472-.478l.24-1.2.079.956a3.685,3.685,0,0,1,2.472-.159c.079-.24-1.435-1.516-2.792-1.756s-3.109,1.276-3.109,1.276a6.292,6.292,0,0,0,.637-2.71,32.038,32.038,0,0,0-.557-3.508,13.364,13.364,0,0,0-1.516,3.428,5.353,5.353,0,0,0-.159,2.79,2.878,2.878,0,0,0-1.6-.877,4.365,4.365,0,0,0-2.871,1.038,4.628,4.628,0,0,0-.637,1.913l1.913-.956.21-.329.349-.548.159.557,1.754.161s-1.913.877-2.232,2.073a14.4,14.4,0,0,0-.4,1.913s1.754-1.675,2.313-2.232a2.161,2.161,0,0,1,1.036-.639v.48Z"
                            data-name="Path 22" fill="#68bbdd" id="Path_22"
                            transform="translate(967.535 -145.071)" />
                    </g>
                </g>
                <path
                    d="M-1052.678,208.938a204.212,204.212,0,0,1-24.737-.262V157.354h374.959v46c-15.277-.067-39.055.964-35.425,8.228,5.291,10.581,18.517,6.613,14.549,18.517s-46.293-2.645-42.325,9.259a11.866,11.866,0,0,0,3.222,4.581,3.865,3.865,0,0,1-2.668,6.66h-295.025c.105-7.5,41.537-9.1,37.873-15.209-3.968-6.615-52.908-3.968-38.359-10.583S-1032.838,207.617-1052.678,208.938Z"
                    data-name="Path 23" fill="url(#linear-gradient-2)" id="Path_23"
                    transform="translate(1077.478 -62.135)" />
            </g>
            <g data-name="Group 18" id="Group_18" transform="translate(65.803 405.601)">
                <g data-name="Group 15" id="Group_15" transform="translate(172.278)">
                    <path
                        d="M-972.64,218.057l-24.8-37.036-47.287,2.645S-1022.24,222.025-972.64,218.057Z"
                        data-name="Path 24" fill="#fff" id="Path_24"
                        transform="translate(1044.727 -181.021)" />
                    <path d="M-1030.788,233.083l23.922-47.843,3.549,1.775-23.034,46.068Z"
                        data-name="Path 25" fill="#fff" id="Path_25"
                        transform="translate(1047.749 -176.869)" />
                </g>
                <g data-name="Group 16" id="Group_16" transform="translate(0 10.196)">
                    <path
                        d="M-948.56,213.682l18.429-27.522,35.139,1.966A57.739,57.739,0,0,1-948.56,213.682Z"
                        data-name="Path 26" fill="#fff" id="Path_26"
                        transform="translate(948.56 -186.16)" />
                    <path d="M-921.793,224.849-939.57,189.3l-2.638,1.319,17.117,34.234Z"
                        data-name="Path 27" fill="#fff" id="Path_27"
                        transform="translate(962.758 -183.075)" />
                </g>
                <g data-name="Group 17" id="Group_17" transform="translate(47.616 26.743)">
                    <path
                        d="M-966.56,215.906l14.334-21.406,27.33,1.528A44.906,44.906,0,0,1-966.56,215.906Z"
                        data-name="Path 28" fill="#fff" id="Path_28"
                        transform="translate(966.56 -194.5)" />
                    <path d="M-945.741,224.591l-13.826-27.652-2.052,1.026,13.313,26.627Z"
                        data-name="Path 29" fill="#fff" id="Path_29"
                        transform="translate(977.603 -192.101)" />
                </g>
            </g>
        </g>
    </g>
</svg>
